# xmcd
#
# Track frame offsets:
#	150
#	11588
#	25103
#	37055
#	48705
#	62177
#	76942
#	87777
#	100875
#	112137
#	122895
#	135344
#	146262
#	156659
#
# Disc length: 2250 seconds
#
# Revision: 0
# Processed by: cddbd v1.5PL3 Copyright (c) Steve Scherf et al.
# Submitted via: dBpowerAMP V4.0
#
DISCID=be08c80e
DTITLE=John Lee Hooker - Boom Boom
DYEAR=1900
DGENRE=Blues
TTITLE0=Boom Boom
TTITLE1=Every Night
TTITLE2=I'm Mad Again
TTITLE3=Solid Sender
TTITLE4=Baby Lee
TTITLE5=Moanin' Blues
TTITLE6=Goin' to California
TTITLE7=I See You When You're Weak
TTITLE8=Sunny Land
TTITLE9=Maudie
TTITLE10=Crawlin' Kingsnake
TTITLE11=Send Me Your Pillow
TTITLE12=Big Legs, Tight Skirt
TTITLE13=I'm In The Mood
EXTD=
EXTT0=
EXTT1=
EXTT2=
EXTT3=
EXTT4=
EXTT5=
EXTT6=
EXTT7=
EXTT8=
EXTT9=
EXTT10=
EXTT11=
EXTT12=
EXTT13=
PLAYORDER=
